<svg width="30" height="30" viewBox="0 0 30 30" fill="none" xmlns="http://www.w3.org/2000/svg">
<path fill-rule="evenodd" clip-rule="evenodd" d="M29.1667 15.8333C29.6269 15.8333 30 15.4602 30 15C30 14.5398 29.6269 14.1667 29.1667 14.1667L22.5 14.1667C22.0398 14.1667 21.6667 14.5398 21.6667 15C21.6667 15.4602 22.0398 15.8333 22.5 15.8333L29.1667 15.8333ZM24.4278 25.6065C24.7533 25.932 25.2809 25.932 25.6063 25.6065C25.9318 25.2811 25.9318 24.7535 25.6063 24.428L20.8923 19.714C20.5669 19.3886 20.0392 19.3886 19.7138 19.714C19.3884 20.0394 19.3884 20.5671 19.7138 20.8925L24.4278 25.6065ZM15 -6.55671e-07C15.4602 -6.35553e-07 15.8333 0.373095 15.8333 0.833333L15.8333 7.5C15.8333 7.96024 15.4602 8.33333 15 8.33333C14.5398 8.33333 14.1667 7.96024 14.1667 7.5L14.1667 0.833333C14.1667 0.373095 14.5398 -6.75788e-07 15 -6.55671e-07ZM25.6063 5.57196C25.9318 5.24653 25.9318 4.71889 25.6063 4.39345C25.2809 4.06801 24.7533 4.06801 24.4278 4.39345L19.7138 9.10749C19.3884 9.43293 19.3884 9.96057 19.7138 10.286C20.0392 10.6114 20.5669 10.6114 20.8923 10.286L25.6063 5.57196ZM8.33333 15C8.33333 15.4602 7.96024 15.8333 7.5 15.8333L0.833333 15.8333C0.373096 15.8333 -6.75788e-07 15.4602 -6.55671e-07 15C-6.35553e-07 14.5398 0.373096 14.1667 0.833333 14.1667L7.5 14.1667C7.96024 14.1667 8.33333 14.5398 8.33333 15ZM9.1072 10.2859C9.43263 10.6113 9.96027 10.6113 10.2857 10.2859C10.6111 9.96047 10.6111 9.43284 10.2857 9.1074L5.57166 4.39335C5.24623 4.06792 4.71859 4.06792 4.39315 4.39335C4.06771 4.71879 4.06771 5.24643 4.39315 5.57186L9.1072 10.2859ZM15 21.6667C15.4602 21.6667 15.8333 22.0398 15.8333 22.5L15.8333 29.1667C15.8333 29.6269 15.4602 30 15 30C14.5398 30 14.1667 29.6269 14.1667 29.1667L14.1667 22.5C14.1667 22.0398 14.5398 21.6667 15 21.6667ZM10.2857 20.8926C10.6111 20.5672 10.6111 20.0395 10.2857 19.7141C9.96027 19.3887 9.43263 19.3886 9.1072 19.7141L4.39315 24.4281C4.06771 24.7536 4.06771 25.2812 4.39315 25.6066C4.71859 25.9321 5.24622 25.9321 5.57166 25.6066L10.2857 20.8926Z" fill="white"/>
</svg>
