<svg width="36" height="36" viewBox="0 0 36 36" fill="none" xmlns="http://www.w3.org/2000/svg">
<g clip-path="url(#clip0_1950_12581)">
<path d="M0 8C0 3.58172 3.58172 0 8 0H28C32.4183 0 36 3.58172 36 8V28C36 32.4183 32.4183 36 28 36H8C3.58172 36 0 32.4183 0 28V8Z" fill="url(#paint0_linear_1950_12581)"/>
<path fill-rule="evenodd" clip-rule="evenodd" d="M20.7572 14.6938L24.7984 11.4981C25.2133 11.17 25.5662 10.7594 25.8306 10.3013C25.8473 10.2725 25.8633 10.2434 25.8788 10.2142C28.404 12.4141 30 15.6535 30 19.2657C30 25.7323 24.8849 31.0043 18.48 31.2562V31.2657H17.52V31.2562C11.1151 31.0043 6 25.7323 6 19.2657C6 12.6383 11.0913 6.74999 17.7187 6.74999C18.2672 6.74999 20.6966 6.36236 21.2255 6.43361C21.2255 6.96097 21.2255 7.31252 21.2255 7.7041C20.9755 8.15015 20.8056 8.64433 20.7315 9.15008L19.9846 14.2477C19.9216 14.6775 20.4165 14.9633 20.7572 14.6938ZM17.52 29.7329V20.017L8.94867 25.5883C11.4961 27.9844 13.9727 29.5812 17.52 29.7329ZM8.43288 24.2864L17.0566 18.681L16.3828 18.7352L8.51147 13.6188C7.5261 15.271 6.96 17.2022 6.96 19.2657C6.96 21.2736 7.49606 22.6642 8.43288 24.2864ZM9.03856 12.3242L17.52 17.8372V8.23589C14.0278 8.38528 10.9559 9.66476 9.03856 12.3242ZM27.4534 13.5602L19.6172 18.6538L18.8181 18.681L27.5328 24.3455C28.4908 22.7099 29.04 21.298 29.04 19.2657C29.04 17.1778 28.4604 15.2253 27.4534 13.5602ZM27.012 25.6441L18.48 20.0984L18.48 29.7329C22.003 29.5822 24.5039 28.125 27.012 25.6441Z" fill="black" fill-opacity="0.05"/>
<path d="M21.1096 13.1912L24.2029 10.7451C24.5212 10.4934 24.7945 10.1759 24.9992 9.82132C25.2422 9.45702 25.2283 8.77854 25.2283 7.73437C24.4337 7.27562 22.5404 7.32182 22.0693 8.13778C21.8646 8.49232 21.7402 8.88782 21.6814 9.28926L21.1096 11.918V13.1912Z" fill="black" fill-opacity="0.05"/>
<path fill-rule="evenodd" clip-rule="evenodd" d="M20.7572 14.3422L24.7984 11.1465C25.2133 10.8185 25.5662 10.4078 25.8306 9.94977C25.8473 9.92091 25.8633 9.89186 25.8788 9.86263C28.404 12.0626 30 15.3019 30 18.9141C30 25.3807 24.8849 30.6527 18.48 30.9047V30.9141H17.52V30.9047C11.1151 30.6527 6 25.3807 6 18.9141C6 12.2867 11.3726 6.91408 18 6.91408C18.9397 6.91408 20.348 6.22934 21.2255 6.4336C21.2255 6.71484 21.2255 7.17188 21.2255 7.35254C20.9755 7.7986 20.8056 8.29277 20.7315 8.79852L19.9846 13.8961C19.9216 14.326 20.4165 14.6117 20.7572 14.3422ZM17.52 29.9438V19.6654L8.94867 25.2367C10.859 27.9665 13.9727 29.7921 17.52 29.9438ZM8.43288 24.427L17.0566 18.8216L8.51147 13.2672C7.5261 14.9194 6.96 16.8506 6.96 18.9141C6.96 20.922 7.49606 22.8048 8.43288 24.427ZM9.03856 12.4649L17.52 17.9778V7.88433C14.0278 8.03372 10.9559 9.8054 9.03856 12.4649ZM27.4534 13.2087L18.8181 18.8216L27.5328 24.4861C28.4908 22.8506 29.04 20.9465 29.04 18.9141C29.04 16.8262 28.4604 14.8737 27.4534 13.2087ZM27.012 25.2926L18.48 19.7468L18.48 29.9438C22.003 29.7931 25.0984 27.9913 27.012 25.2926Z" fill="black" fill-opacity="0.05"/>
<path d="M21.1318 12.8L24.2251 10.3539C24.5433 10.1022 24.8167 9.78468 25.0214 9.43013C25.29 8.96484 25.2292 8.19141 25.2292 7.69475C25.0935 7.36107 24.7473 7.29756 24.4183 7.1076C23.6237 6.64886 22.5765 6.93063 22.1054 7.74659C21.9007 8.10114 21.7624 8.49663 21.7035 8.89807L21.1318 11.8783V12.8Z" fill="black" fill-opacity="0.05"/>
<path fill-rule="evenodd" clip-rule="evenodd" d="M20.7572 13.9204L24.7984 10.7247C25.2133 10.3966 25.5662 9.98594 25.8306 9.52789C25.8473 9.49904 25.8633 9.46999 25.8788 9.44076C28.404 11.6407 30 14.8801 30 18.4922C30 24.9589 24.8849 30.2308 18.48 30.4828V30.4922H17.52V30.4828C11.1151 30.2308 6 24.9589 6 18.4922C6 11.8648 11.3726 6.49221 18 6.49221C19.0317 6.49221 20.2702 6.18876 21.2255 6.43361C21.2255 6.71484 21.2255 6.82031 21.2255 6.93067C20.9755 7.37672 20.8056 7.8709 20.7315 8.37664L19.9846 13.4743C19.9216 13.9041 20.4165 14.1898 20.7572 13.9204ZM17.52 29.522V19.2435L8.94867 24.8149C10.859 27.5446 13.9727 29.3702 17.52 29.522ZM8.43288 24.0052L17.0566 18.3997L8.51147 12.8454C7.5261 14.4975 6.96 16.4288 6.96 18.4922C6.96 20.5002 7.49606 22.3829 8.43288 24.0052ZM9.03856 12.043L17.52 17.5559V7.46246C14.0278 7.61185 10.9559 9.38352 9.03856 12.043ZM27.4534 12.7868L18.8181 18.3997L27.5328 24.0642C28.4908 22.4287 29.04 20.5246 29.04 18.4922C29.04 16.4043 28.4604 14.4518 27.4534 12.7868ZM27.012 24.8707L18.48 19.3249L18.48 29.522C22.003 29.3712 25.0984 27.5694 27.012 24.8707Z" fill="black" fill-opacity="0.05"/>
<path d="M21.1096 12.4178L24.2029 9.97164C24.5212 9.71998 24.7945 9.40244 24.9992 9.04789C25.2237 8.65912 25.2279 8.19141 25.2279 7.73438C25.128 7.28908 24.8121 6.96553 24.3962 6.72536C23.6016 6.26661 22.5543 6.54839 22.0832 7.36434C21.8785 7.71889 21.7402 8.11439 21.6814 8.51582L21.1096 11.918V12.4178Z" fill="black" fill-opacity="0.05"/>
<path fill-rule="evenodd" clip-rule="evenodd" d="M20.7572 13.4282L24.7984 10.2325C25.2133 9.90439 25.5662 9.49375 25.8306 9.0357C25.8473 9.00685 25.8633 8.9778 25.8788 8.94857C28.404 11.1485 30 14.3879 30 18C30 24.4667 24.8849 29.7386 18.48 29.9906V30H17.52V29.9906C11.1151 29.7386 6 24.4667 6 18C6 11.3726 11.3726 6.00002 18 6.00002C19.1174 6.00002 20.1992 6.15275 21.2255 6.43848C20.9755 6.88453 20.8056 7.3787 20.7315 7.88445L19.9846 12.9821C19.9216 13.4119 20.4165 13.6976 20.7572 13.4282ZM17.52 29.0298V18.7513L8.94867 24.3227C10.859 27.0524 13.9727 28.878 17.52 29.0298ZM8.43288 23.513L17.0566 17.9075L8.51147 12.3532C7.5261 14.0053 6.96 15.9366 6.96 18C6.96 20.008 7.49606 21.8907 8.43288 23.513ZM9.03856 11.5508L17.52 17.0637V6.97026C14.0278 7.11965 10.9559 8.89133 9.03856 11.5508ZM27.4534 12.2946L18.8181 17.9075L27.5328 23.572C28.4908 21.9365 29.04 20.0324 29.04 18C29.04 15.9121 28.4604 13.9596 27.4534 12.2946ZM27.012 24.3785L18.48 18.8327L18.48 29.0298C22.003 28.8791 25.0984 27.0773 27.012 24.3785Z" fill="white"/>
<path d="M21.1096 11.9256L24.2029 9.47945C24.5212 9.22779 24.7945 8.91024 24.9992 8.5557C25.4703 7.73974 25.1907 6.69191 24.3962 6.23317C23.6016 5.77442 22.5543 6.05619 22.0832 6.87215C21.8785 7.2267 21.7402 7.6222 21.6814 8.02363L21.1096 11.9256Z" fill="white"/>
</g>
<defs>
<linearGradient id="paint0_linear_1950_12581" x1="18" y1="0" x2="18" y2="36" gradientUnits="userSpaceOnUse">
<stop stop-color="#F56063"/>
<stop offset="1" stop-color="#9806F5"/>
</linearGradient>
<clipPath id="clip0_1950_12581">
<rect width="36" height="36" fill="white"/>
</clipPath>
</defs>
</svg>
