<svg width="36" height="36" viewBox="0 0 36 36" fill="none" xmlns="http://www.w3.org/2000/svg">
<g clip-path="url(#clip0_1950_12580)">
<path d="M0 7.99999C0 3.58172 3.58172 0 7.99999 0H28C32.4183 0 36 3.58172 36 7.99999V28C36 32.4183 32.4183 36 28 36H7.99999C3.58172 36 0 32.4183 0 28V7.99999Z" fill="url(#paint0_linear_1950_12580)"/>
<path d="M15 4.53516C15 4.85156 15 5.48947 15 5.76561C15 6.04175 15.2239 6.26561 15.5 6.26561H20.5C20.7761 6.26561 21 6.04175 21 5.76561C21 5.48947 21 4.95703 21 4.53516H15Z" fill="black" fill-opacity="0.05"/>
<path fill-rule="evenodd" clip-rule="evenodd" d="M30 19.2656C30 25.893 24.6274 31.2656 18 31.2656C11.3726 31.2656 6.00001 25.893 6.00001 19.2656C6.00001 18.5828 6 18.1055 6 17.332C6.95376 11.6585 12.0554 7.26561 18 7.26561C24.224 7.26561 29.4001 12.0392 30 18.1055C30 18.5977 30 18.8622 30 19.2656ZM17.5 15.2656C17.7761 15.2656 18 15.4895 18 15.7656V19.5543L20.5311 21.0156C20.7702 21.1537 20.8522 21.4595 20.7141 21.6986C20.576 21.9378 20.2702 22.0197 20.0311 21.8816L17.433 20.3816C17.3541 20.3361 17.2924 20.2723 17.25 20.1987C17.1005 20.1122 17 19.9507 17 19.7656V15.7656C17 15.4895 17.2239 15.2656 17.5 15.2656ZM18 10.2656C18 10.5418 17.7756 10.7641 17.5 10.7801C13.0383 11.0389 9.50001 14.7391 9.50001 19.2656C9.50001 23.96 13.3056 27.7656 18 27.7656C20.7768 27.7656 23.2429 26.4344 24.7948 24.3735C24.9609 24.1529 25.2701 24.0894 25.5 24.2423C25.73 24.3952 25.7935 24.7065 25.6287 24.9281C23.898 27.256 21.1254 28.7656 18 28.7656C12.7533 28.7656 8.50001 24.5123 8.50001 19.2656C8.50001 14.1866 12.4858 10.0385 17.5001 9.77854C17.7759 9.76424 18 9.98947 18 10.2656Z" fill="black" fill-opacity="0.05"/>
<path d="M15 4.53516C15 4.85156 15 5.1379 15 5.41405C15 5.69019 15.2239 5.91405 15.5 5.91405H20.5C20.7761 5.91405 21 5.69019 21 5.41405C21 5.1379 21 4.85156 21 4.53516H15Z" fill="black" fill-opacity="0.05"/>
<path fill-rule="evenodd" clip-rule="evenodd" d="M30 18.914C30 25.5415 24.6274 30.914 18 30.914C11.3726 30.914 6 25.5415 6 18.914C6 12.2866 11.3726 6.91405 18 6.91405C24.2481 6.91405 29.4329 11.9001 30 18C30 18.3867 30 18.5347 30 18.914ZM17.5 14.914C17.7761 14.914 18 15.1379 18 15.414V19.2027L20.5311 20.664C20.7702 20.8021 20.8522 21.1079 20.7141 21.3471C20.576 21.5862 20.2702 21.6681 20.0311 21.5301L17.433 20.0301C17.3541 19.9845 17.2924 19.9207 17.2499 19.8471C17.1005 19.7607 17 19.5991 17 19.414V15.414C17 15.1379 17.2239 14.914 17.5 14.914ZM18 9.91405C18 10.1902 17.7756 10.4125 17.5 10.4285C13.0383 10.6873 9.5 14.3875 9.5 18.914C9.5 23.6085 13.3056 27.414 18 27.414C20.7768 27.414 23.2429 26.0829 24.7947 24.0219C24.9608 23.8013 25.27 23.7379 25.5 23.8907C25.73 24.0436 25.7934 24.3549 25.6287 24.5765C23.898 26.9044 21.1254 28.414 18 28.414C12.7533 28.414 8.5 24.1608 8.5 18.914C8.5 13.835 12.4858 9.68692 17.5001 9.42697C17.7759 9.41268 18 9.63791 18 9.91405Z" fill="black" fill-opacity="0.05"/>
<path d="M15 4.49217C15 4.81641 15 4.71603 15 4.99217C15 5.26831 15.2239 5.49217 15.5 5.49217H20.5C20.7761 5.49217 21 5.26831 21 4.99217C21 4.71603 21 4.67578 21 4.49217H15Z" fill="black" fill-opacity="0.05"/>
<path fill-rule="evenodd" clip-rule="evenodd" d="M30 18.4922C30 25.1196 24.6274 30.4922 18 30.4922C11.3726 30.4922 6 25.1196 6 18.4922C6 11.8648 11.3726 6.49217 18 6.49217C24.0668 6.49217 29.195 12.0842 30 17.9297C30 18.2812 30 17.9316 30 18.4922ZM17.5 14.4922C17.7761 14.4922 18 14.716 18 14.9922V18.7808L20.5311 20.2422C20.7702 20.3802 20.8522 20.686 20.7141 20.9252C20.576 21.1643 20.2702 21.2463 20.0311 21.1082L17.433 19.6082C17.3541 19.5627 17.2924 19.4989 17.2499 19.4253C17.1005 19.3388 17 19.1772 17 18.9922V14.9922C17 14.716 17.2239 14.4922 17.5 14.4922ZM18 9.49217C18 9.76831 17.7756 9.99064 17.5 10.0066C13.0383 10.2655 9.5 13.9656 9.5 18.4922C9.5 23.1866 13.3056 26.9922 18 26.9922C20.7768 26.9922 23.2429 25.661 24.7947 23.6001C24.9608 23.3795 25.27 23.316 25.5 23.4689C25.73 23.6218 25.7934 23.933 25.6287 24.1546C23.898 26.4825 21.1254 27.9922 18 27.9922C12.7533 27.9922 8.5 23.7389 8.5 18.4922C8.5 13.4131 12.4858 9.26505 17.5001 9.0051C17.7759 8.9908 18 9.21603 18 9.49217Z" fill="black" fill-opacity="0.05"/>
<path d="M15.5 3.99998C15.2239 3.99998 15 4.22384 15 4.49998C15 4.77613 15.2239 4.99998 15.5 4.99998H20.5C20.7761 4.99998 21 4.77613 21 4.49998C21 4.22384 20.7761 3.99998 20.5 3.99998H15.5Z" fill="white"/>
<path fill-rule="evenodd" clip-rule="evenodd" d="M30 18C30 24.6274 24.6274 30 18 30C11.3726 30 6 24.6274 6 18C6 11.3726 11.3726 5.99998 18 5.99998C24.6274 5.99998 30 11.3726 30 18ZM17.5 14C17.7761 14 18 14.2238 18 14.5V18.2887L20.5311 19.75C20.7702 19.8881 20.8522 20.1939 20.7141 20.433C20.576 20.6721 20.2702 20.7541 20.0311 20.616L17.433 19.116C17.3541 19.0705 17.2924 19.0067 17.2499 18.9331C17.1005 18.8466 17 18.685 17 18.5V14.5C17 14.2238 17.2239 14 17.5 14ZM18 8.99998C18 9.27613 17.7756 9.49846 17.5 9.51445C13.0383 9.77328 9.5 13.4734 9.5 18C9.5 22.6944 13.3056 26.5 18 26.5C20.7768 26.5 23.2429 25.1688 24.7947 23.1079C24.9608 22.8873 25.27 22.8238 25.5 22.9767C25.73 23.1296 25.7934 23.4408 25.6287 23.6625C23.898 25.9904 21.1254 27.5 18 27.5C12.7533 27.5 8.5 23.2467 8.5 18C8.5 12.921 12.4858 8.77286 17.5001 8.51291C17.7759 8.49861 18 8.72384 18 8.99998Z" fill="white"/>
</g>
<defs>
<linearGradient id="paint0_linear_1950_12580" x1="18" y1="0" x2="18" y2="36" gradientUnits="userSpaceOnUse">
<stop stop-color="#FF3800"/>
<stop offset="1" stop-color="#F0389F"/>
</linearGradient>
<clipPath id="clip0_1950_12580">
<rect width="36" height="36" fill="white"/>
</clipPath>
</defs>
</svg>
