<svg width="24" height="24" viewBox="0 0 24 24" fill="none" xmlns="http://www.w3.org/2000/svg">
<path fill-rule="evenodd" clip-rule="evenodd" d="M10 9.5C10 9.77614 9.77614 10 9.5 10H4.5C4.22386 10 4 9.77614 4 9.5C4 9.22386 4.22386 9 4.5 9H9V4.5C9 4.22386 9.22386 4 9.5 4C9.77614 4 10 4.22386 10 4.5V9.5Z" fill="#fff"/>
<path fill-rule="evenodd" clip-rule="evenodd" d="M3.14645 3.14645C3.34171 2.95118 3.65829 2.95118 3.85355 3.14645L9.85355 9.14645C10.0488 9.34171 10.0488 9.65829 9.85355 9.85355C9.65829 10.0488 9.34171 10.0488 9.14645 9.85355L3.14645 3.85355C2.95118 3.65829 2.95118 3.34171 3.14645 3.14645Z" fill="#fff"/>
<path fill-rule="evenodd" clip-rule="evenodd" d="M14.1464 14.1464C14.3417 13.9512 14.6583 13.9512 14.8536 14.1464L20.8536 20.1464C21.0488 20.3417 21.0488 20.6583 20.8536 20.8536C20.6583 21.0488 20.3417 21.0488 20.1464 20.8536L14.1464 14.8536C13.9512 14.6583 13.9512 14.3417 14.1464 14.1464Z" fill="#fff"/>
<path fill-rule="evenodd" clip-rule="evenodd" d="M14 14.5C14 14.2239 14.2239 14 14.5 14H19.5C19.7761 14 20 14.2239 20 14.5C20 14.7761 19.7761 15 19.5 15H15V19.5C15 19.7761 14.7761 20 14.5 20C14.2239 20 14 19.7761 14 19.5V14.5Z" fill="#fff"/>
</svg>
