<svg width="24" height="24" viewBox="0 0 24 24" fill="none" xmlns="http://www.w3.org/2000/svg">
<path fill-rule="evenodd" clip-rule="evenodd" d="M14.8974 4.00012L19.2874 4.00003L13.1405 10.1494C12.9453 10.3447 12.9454 10.6613 13.1407 10.8565C13.336 11.0517 13.6525 11.0517 13.8478 10.8564L19.9949 4.70675L19.9975 9.10153C19.9976 9.37768 20.2216 9.60141 20.4978 9.60124C20.7739 9.60108 20.9976 9.37709 20.9975 9.10094L20.9941 3.49971C20.994 3.22368 20.7702 2.99999 20.4941 3L14.8974 3.00011C14.6212 3.00011 14.3974 3.22398 14.3974 3.50012C14.3974 3.77627 14.6213 4.00012 14.8974 4.00012ZM10.8519 13.8544C11.0471 13.6591 11.047 13.3425 10.8517 13.1473C10.6564 12.9521 10.3398 12.9522 10.1446 13.1475L4.00195 19.2925V14.8966C4.00195 14.6205 3.7781 14.3966 3.50195 14.3966C3.22581 14.3966 3.00195 14.6205 3.00195 14.8966V20.5C3.00195 20.7761 3.22581 21 3.50195 21H9.0874C9.36355 21 9.5874 20.7761 9.5874 20.5C9.5874 20.2238 9.36355 20 9.0874 20H4.70873L10.8519 13.8544Z" fill="#fff"/>
</svg>
