<svg width="24" height="24" viewBox="0 0 24 24" fill="none" xmlns="http://www.w3.org/2000/svg">
<path fill-rule="evenodd" clip-rule="evenodd" d="M9 2.5C9 2.22386 9.22386 2 9.5 2H14.5C14.7761 2 15 2.22386 15 2.5C15 2.77614 14.7761 3 14.5 3H9.5C9.22386 3 9 2.77614 9 2.5Z" fill="#fff"/>
<path fill-rule="evenodd" clip-rule="evenodd" d="M12 21C16.4183 21 20 17.4183 20 13C20 8.58172 16.4183 5 12 5C7.58172 5 4 8.58172 4 13C4 17.4183 7.58172 21 12 21ZM12 22C16.9706 22 21 17.9706 21 13C21 8.02944 16.9706 4 12 4C7.02944 4 3 8.02944 3 13C3 17.9706 7.02944 22 12 22Z" fill="#fff"/>
<path fill-rule="evenodd" clip-rule="evenodd" d="M12.0305 6.49474C12.05 6.7702 11.8425 7.0093 11.567 7.0288C8.45338 7.24921 5.99365 9.85164 5.99365 13.0311C5.99365 16.3555 8.6823 19.0486 11.9965 19.0486C13.7838 19.0486 15.3883 18.2663 16.4888 17.0226C16.6718 16.8158 16.9878 16.7965 17.1946 16.9795C17.4014 17.1625 17.4207 17.4785 17.2377 17.6853C15.9557 19.1341 14.0825 20.0486 11.9965 20.0486C8.1279 20.0486 4.99365 16.9057 4.99365 13.0311C4.99365 9.32491 7.86103 6.28864 11.4964 6.0313C11.7718 6.0118 12.011 6.21929 12.0305 6.49474Z" fill="#fff"/>
<path fill-rule="evenodd" clip-rule="evenodd" d="M12.1788 10.5393C12.1788 10.2632 11.9549 10.0393 11.6788 10.0393C11.4026 10.0393 11.1788 10.2632 11.1788 10.5393V13.5338C11.1758 13.7067 11.2627 13.8765 11.4217 13.9718L13.4217 15.171C13.6585 15.313 13.9656 15.2361 14.1076 14.9993C14.2496 14.7625 14.1727 14.4554 13.9359 14.3134L12.1788 13.2598V10.5393Z" fill="#fff"/>
</svg>
