<svg width="24" height="24" viewBox="0 0 24 24" fill="none" xmlns="http://www.w3.org/2000/svg">
<path fill-rule="evenodd" clip-rule="evenodd" d="M11.5001 20.9863C11.6656 20.9954 11.8323 21 12.0001 21C12.1678 21 12.3345 20.9954 12.5001 20.9863C15.4101 20.827 17.9519 19.2851 19.4801 17.0064C19.6654 16.7301 19.8359 16.443 19.9902 16.1462C20.6354 14.9054 21 13.4952 21 11.9999C21 10.5388 20.6518 9.15899 20.0339 7.93894C19.8827 7.64048 19.7154 7.35156 19.5331 7.07337C19.2219 6.59845 18.8669 6.15476 18.474 5.74798C18.8282 5.45044 19.1308 5.08838 19.3619 4.68805C20.0525 3.49193 19.6551 1.94093 18.459 1.25035C17.2629 0.559773 15.721 0.991128 15.0304 2.18724C14.8182 2.55481 14.664 2.95837 14.5778 3.37455C13.7612 3.13084 12.8959 2.99995 12 2.99995C7.02944 2.99995 3 7.02939 3 11.9999C3 16.8027 6.76203 20.7269 11.5001 20.9863ZM17.7652 5.03581L15.0202 7.20648L15.5276 3.74395C15.5815 3.37585 15.7085 3.01275 15.8964 2.68724C16.3173 1.95824 17.2523 1.70835 17.959 2.11638C18.6657 2.5244 18.9168 3.45905 18.4959 4.18805C18.3079 4.51355 18.057 4.80505 17.7652 5.03581ZM14.6531 8.77165L17.6865 6.3729C18.05 6.74018 18.3781 7.1425 18.6654 7.57433L12.5001 11.1339V4.01532C13.167 4.05645 13.8118 4.17929 14.4246 4.37395L13.8483 8.30696C13.7827 8.75471 14.2982 9.05234 14.6531 8.77165ZM11.5001 4.01532C8.89231 4.17611 6.62257 5.58619 5.28199 7.65443L11.5001 11.2444V4.01532ZM4.7916 8.526C4.28433 9.57664 4 10.7551 4 11.9999C4 13.2789 4.30013 14.4878 4.83381 15.56L10.9043 12.0552L4.7916 8.526ZM5.3346 16.4256C6.68148 18.4501 8.92611 19.8259 11.5001 19.9846V12.8659L5.3346 16.4256ZM19.1662 8.4399L12.9043 12.0552L19.123 15.6455C19.6836 14.5523 20 13.3131 20 11.9999C20 10.721 19.6999 9.51209 19.1662 8.4399ZM18.6118 16.5051L12.5001 12.9765V19.9846C15.0401 19.8279 17.2594 18.486 18.6118 16.5051Z" fill="#fff"/>
</svg>
